# Blender v2.79 (sub 0) OBJ File: 'ship.blend'
# www.blender.org
mtllib ship.mtl
o Cone
v 0.081145 5.397724 -0.018560
v 0.081145 6.122315 0.269699
v 0.137382 5.397724 -0.013022
v 0.191457 5.397724 0.003382
v 0.241294 5.397724 0.030020
v 0.284976 5.397724 0.065869
v 0.320824 5.397724 0.109551
v 0.347462 5.397724 0.159387
v 0.363866 5.397724 0.213462
v 0.369405 5.397724 0.269699
v 0.363866 5.397724 0.325936
v 0.347462 5.397724 0.380011
v 0.320824 5.397724 0.429848
v 0.284976 5.397724 0.473529
v 0.241294 5.397724 0.509378
v 0.191457 5.397724 0.536016
v 0.137382 5.397724 0.552420
v 0.081145 5.397724 0.557959
v 0.024909 5.397724 0.552420
v -0.029167 5.397724 0.536016
v -0.079003 5.397724 0.509378
v -0.122685 5.397724 0.473529
v -0.158534 5.397724 0.429847
v -0.185172 5.397724 0.380011
v -0.201576 5.397724 0.325935
v -0.207114 5.397724 0.269699
v -0.201575 5.397724 0.213462
v -0.185172 5.397724 0.159387
v -0.158534 5.397724 0.109550
v -0.122685 5.397724 0.065869
v -0.079003 5.397724 0.030020
v -0.029166 5.397724 0.003382
v 0.024909 5.397724 -0.013022
v 0.079505 4.200240 -0.018807
v 0.079505 5.398286 -0.018807
v 0.136041 4.200240 -0.013239
v 0.136041 5.398286 -0.013239
v 0.190405 4.200240 0.003252
v 0.190405 5.398286 0.003252
v 0.240507 4.200240 0.030032
v 0.240507 5.398286 0.030032
v 0.284422 4.200240 0.066072
v 0.284422 5.398286 0.066072
v 0.320462 4.200240 0.109987
v 0.320462 5.398286 0.109987
v 0.347242 4.200240 0.160089
v 0.347242 5.398286 0.160089
v 0.363733 4.200240 0.214453
v 0.363733 5.398286 0.214453
v 0.369302 4.200240 0.270989
v 0.369302 5.398286 0.270989
v 0.498891 3.944779 0.358881
v 0.498891 5.142826 0.358881
v 0.347242 4.200240 0.381890
v 0.347242 5.398286 0.381890
v 0.320462 4.200240 0.431992
v 0.320462 5.398286 0.431992
v 0.284422 4.200240 0.475907
v 0.284422 5.398286 0.475907
v 0.240507 4.200240 0.511947
v 0.240507 5.398286 0.511947
v 0.190405 4.200240 0.538727
v 0.190405 5.398286 0.538727
v 0.136041 4.200240 0.555218
v 0.136041 5.398286 0.555218
v 0.079505 4.200240 0.560786
v 0.079505 5.398286 0.560786
v 0.022968 4.200240 0.555218
v 0.022968 5.398286 0.555218
v -0.031396 4.200240 0.538727
v -0.031396 5.398286 0.538727
v -0.081498 4.200240 0.511946
v -0.081498 5.398286 0.511946
v -0.217799 3.952992 0.602614
v -0.217799 5.093617 0.602614
v -0.161452 4.200240 0.431992
v -0.161452 5.398286 0.431992
v -0.188232 4.200240 0.381890
v -0.188232 5.398286 0.381890
v -0.204723 4.200240 0.327526
v -0.204723 5.398286 0.327526
v -0.210292 4.200240 0.270989
v -0.210292 5.398286 0.270989
v -0.204723 4.200240 0.214453
v -0.204723 5.398286 0.214453
v -0.188232 4.200240 0.160089
v -0.188232 5.398286 0.160089
v -0.161452 4.200240 0.109987
v -0.161452 5.398286 0.109987
v -0.125412 4.200240 0.066072
v -0.125412 5.398286 0.066072
v -0.081497 4.200240 0.030032
v -0.081497 5.398286 0.030032
v -0.064075 3.950840 -0.094340
v -0.064075 5.086453 -0.094340
v 0.022969 4.200240 -0.013239
v 0.022969 5.398286 -0.013239
v 0.167649 5.227130 0.308348
v 0.266599 5.216992 0.532380
v 0.181642 5.208899 0.301343
v 0.280592 5.198761 0.525374
v 0.192059 5.187972 0.295795
v 0.291009 5.177834 0.519826
v 0.198500 5.165153 0.291917
v 0.297449 5.155014 0.515949
v 0.200716 5.141317 0.289860
v 0.299666 5.131179 0.513891
v 0.198624 5.117383 0.289701
v 0.297573 5.107245 0.513732
v 0.192302 5.094270 0.291447
v 0.291252 5.084131 0.515478
v 0.181995 5.072865 0.295031
v 0.280945 5.062726 0.519062
v 0.168099 5.053991 0.300314
v 0.267048 5.043853 0.524346
v 0.151146 5.038374 0.307095
v 0.250096 5.028235 0.531126
v 0.131790 5.026614 0.315112
v 0.230740 5.016476 0.539144
v 0.110773 5.019162 0.324057
v 0.209723 5.009024 0.548089
v 0.088904 5.016306 0.333587
v 0.187853 5.006167 0.557619
v 0.067022 5.018154 0.343336
v 0.165972 5.008016 0.567367
v 0.045969 5.024636 0.352927
v 0.144919 5.014498 0.576959
v 0.026554 5.035503 0.361994
v 0.125504 5.025365 0.586026
v 0.009523 5.050338 0.370188
v 0.108472 5.040199 0.594220
v -0.004470 5.068568 0.377194
v 0.094480 5.058430 0.601225
v -0.014887 5.089496 0.382741
v 0.084063 5.079358 0.606773
v -0.021327 5.112316 0.386619
v 0.077622 5.102177 0.610650
v -0.023544 5.136150 0.388676
v 0.075406 5.126012 0.612708
v -0.021451 5.160085 0.388835
v 0.077498 5.149946 0.612867
v -0.015130 5.183198 0.387089
v 0.083820 5.173060 0.611121
v -0.004823 5.204603 0.383506
v 0.094127 5.194465 0.607537
v 0.009074 5.223477 0.378222
v 0.108023 5.213339 0.602253
v 0.026026 5.239094 0.371441
v 0.124976 5.228955 0.595473
v 0.045383 5.250854 0.363424
v 0.144332 5.240716 0.587456
v 0.066399 5.258306 0.354479
v 0.165349 5.248167 0.578510
v 0.088269 5.261162 0.344949
v 0.187218 5.251023 0.568980
v 0.110150 5.259314 0.335200
v 0.209100 5.249175 0.559232
v 0.131203 5.252831 0.325609
v 0.230153 5.242693 0.549640
v 0.150618 5.241964 0.316542
v 0.249568 5.231826 0.540573
vt 0.962091 0.000430
vt 0.944000 0.499412
vt 0.925910 0.000430
vt 0.517826 0.000430
vt 0.517826 0.499734
vt 0.481668 0.001741
vt 0.999133 0.000430
vt 0.981042 0.499406
vt 0.962951 0.000430
vt 0.999133 0.500266
vt 0.981043 0.999242
vt 0.962951 0.500266
vt 0.776954 0.000430
vt 0.776954 0.499734
vt 0.740795 0.001741
vt 0.628881 0.000430
vt 0.628881 0.499734
vt 0.592722 0.001741
vt 0.073654 0.500594
vt 0.055563 0.999570
vt 0.037472 0.500594
vt 0.813972 0.000430
vt 0.813972 0.499734
vt 0.777814 0.001741
vt 0.110696 0.500594
vt 0.092605 0.999570
vt 0.074514 0.500594
vt 0.850990 0.000430
vt 0.850990 0.499734
vt 0.814832 0.001741
vt 0.369753 0.000430
vt 0.369753 0.499734
vt 0.333595 0.001741
vt 0.036588 0.000430
vt 0.036588 0.499734
vt 0.000430 0.001741
vt 0.554844 0.000430
vt 0.554844 0.499734
vt 0.518686 0.001741
vt 0.443789 0.000430
vt 0.443789 0.499734
vt 0.407631 0.001741
vt 0.406771 0.000430
vt 0.406771 0.499734
vt 0.370613 0.001741
vt 0.036612 0.500594
vt 0.018521 0.999570
vt 0.000430 0.500594
vt 0.184662 0.000430
vt 0.184662 0.499734
vt 0.148503 0.001741
vt 0.925050 0.500266
vt 0.906959 0.999242
vt 0.888868 0.500266
vt 0.110625 0.000430
vt 0.110625 0.499734
vt 0.074467 0.001741
vt 0.073607 0.000430
vt 0.073607 0.499734
vt 0.037448 0.001741
vt 0.332735 0.000430
vt 0.332735 0.499734
vt 0.296576 0.001741
vt 0.925050 0.000430
vt 0.906959 0.499406
vt 0.888868 0.000430
vt 0.591862 0.000430
vt 0.591862 0.499734
vt 0.555704 0.001741
vt 0.702917 0.000430
vt 0.702917 0.499734
vt 0.666759 0.001741
vt 0.221680 0.000430
vt 0.221680 0.499734
vt 0.185522 0.001741
vt 0.480808 0.000430
vt 0.480808 0.499734
vt 0.444649 0.001741
vt 0.258698 0.000430
vt 0.258698 0.499734
vt 0.222540 0.001741
vt 0.739935 0.000430
vt 0.739935 0.499734
vt 0.703777 0.001741
vt 0.295716 0.000430
vt 0.295716 0.499734
vt 0.259558 0.001741
vt 0.665899 0.000430
vt 0.665899 0.499731
vt 0.629741 0.001741
vt 0.147643 0.000430
vt 0.147643 0.499734
vt 0.111485 0.001741
vt 0.888008 0.000430
vt 0.888008 0.499738
vt 0.851850 0.001741
vt 0.974811 0.000513
vt 0.974811 0.499254
vt 0.951161 0.499254
vt 0.951161 0.000513
vt 0.865612 0.789365
vt 0.763570 0.789365
vt 0.763570 0.779363
vt 0.865612 0.779363
vt 0.246251 0.439025
vt 0.246252 0.937766
vt 0.222602 0.937766
vt 0.222602 0.439025
vt 0.865612 0.822449
vt 0.763570 0.822450
vt 0.763570 0.812448
vt 0.865612 0.812448
vt 0.974811 0.500280
vt 0.974811 0.999020
vt 0.951161 0.999020
vt 0.951161 0.500280
vt 0.147547 0.439025
vt 0.147547 0.937766
vt 0.123897 0.937766
vt 0.123898 0.439025
vt 0.024165 0.439025
vt 0.024163 0.937766
vt 0.000513 0.937766
vt 0.000515 0.439025
vt 0.865612 0.811421
vt 0.763570 0.811421
vt 0.763570 0.801420
vt 0.865612 0.801419
vt 0.950135 0.500280
vt 0.950135 0.999020
vt 0.926485 0.999020
vt 0.926485 0.500280
vt 0.713187 0.367822
vt 0.713170 0.866563
vt 0.689520 0.866562
vt 0.689538 0.367821
vt 0.950135 0.000513
vt 0.950135 0.499254
vt 0.926485 0.499254
vt 0.926485 0.000513
vt 0.865612 0.833478
vt 0.763570 0.833478
vt 0.763570 0.823476
vt 0.865612 0.823476
vt 0.445474 0.474168
vt 0.445474 0.972907
vt 0.380289 0.866560
vt 0.380289 0.367821
vt 0.510362 0.367821
vt 0.510355 0.866560
vt 0.446500 0.972906
vt 0.446508 0.474167
vt 0.196899 0.439025
vt 0.196899 0.937766
vt 0.173250 0.937766
vt 0.173250 0.439025
vt 0.048842 0.439025
vt 0.048841 0.937766
vt 0.025191 0.937765
vt 0.025193 0.439025
vt 0.762543 0.367822
vt 0.762542 0.866562
vt 0.738892 0.866562
vt 0.738894 0.367821
vt 0.098195 0.439025
vt 0.098195 0.937765
vt 0.074545 0.937765
vt 0.074545 0.439025
vt 0.688494 0.367822
vt 0.688477 0.866563
vt 0.664827 0.866562
vt 0.664845 0.367821
vt 0.663687 0.367821
vt 0.663801 0.866562
vt 0.640151 0.866568
vt 0.640038 0.367827
vt 0.638898 0.367821
vt 0.639012 0.866562
vt 0.615362 0.866567
vt 0.615249 0.367827
vt 0.737866 0.367822
vt 0.737863 0.866562
vt 0.714213 0.866562
vt 0.714216 0.367821
vt 0.073519 0.439025
vt 0.073518 0.937766
vt 0.049869 0.937765
vt 0.049869 0.439025
vt 0.925459 0.103441
vt 0.925459 0.602180
vt 0.857310 0.475349
vt 0.857310 0.000513
vt 0.856284 0.000513
vt 0.856284 0.475348
vt 0.781482 0.602180
vt 0.781482 0.103441
vt 0.221575 0.439025
vt 0.221576 0.937766
vt 0.197926 0.937766
vt 0.197926 0.439025
vt 0.369632 0.439025
vt 0.369632 0.937765
vt 0.345982 0.937765
vt 0.345983 0.439025
vt 0.344956 0.439025
vt 0.344956 0.937765
vt 0.321306 0.937765
vt 0.321306 0.439025
vt 0.295604 0.439025
vt 0.295604 0.937766
vt 0.271954 0.937766
vt 0.271954 0.439025
vt 0.320280 0.439025
vt 0.320280 0.937766
vt 0.296630 0.937766
vt 0.296630 0.439025
vt 0.172223 0.439025
vt 0.172223 0.937766
vt 0.148573 0.937766
vt 0.148574 0.439025
vt 0.122871 0.439025
vt 0.122871 0.937766
vt 0.099221 0.937766
vt 0.099222 0.439025
vt 0.270927 0.439025
vt 0.270928 0.937766
vt 0.247278 0.937766
vt 0.247278 0.439025
vt 0.563669 0.471645
vt 0.563669 0.970384
vt 0.511389 0.840570
vt 0.511389 0.367821
vt 0.139550 0.343514
vt 0.116001 0.341337
vt 0.093329 0.334608
vt 0.000513 0.437999
vt 0.054035 0.308692
vt 0.038922 0.290501
vt 0.027649 0.269711
vt 0.020648 0.247121
vt 0.018189 0.223599
vt 0.020366 0.200050
vt 0.027095 0.177378
vt 0.038118 0.156454
vt 0.053012 0.138083
vt 0.000513 0.000513
vt 0.091993 0.111697
vt 0.114582 0.104696
vt 0.138104 0.102237
vt 0.161653 0.104414
vt 0.184326 0.111144
vt 0.205249 0.122167
vt 0.223620 0.137060
vt 0.238733 0.155251
vt 0.250006 0.176041
vt 0.257006 0.198631
vt 0.379263 0.219609
vt 0.257289 0.245702
vt 0.250559 0.268374
vt 0.239536 0.289298
vt 0.224643 0.307669
vt 0.206452 0.322781
vt 0.185662 0.334054
vt 0.163072 0.341055
vt 0.614222 0.367821
vt 0.614222 0.840570
vt 0.564695 0.970384
vt 0.564696 0.471645
vt 0.999487 0.000513
vt 0.999487 0.499253
vt 0.975837 0.499253
vt 0.975837 0.000513
vt 0.704476 0.102997
vt 0.706757 0.126537
vt 0.704402 0.150069
vt 0.697501 0.172690
vt 0.686320 0.193529
vt 0.671288 0.211787
vt 0.652983 0.226762
vt 0.632108 0.237877
vt 0.609466 0.244707
vt 0.583912 0.366795
vt 0.562394 0.244633
vt 0.539774 0.237732
vt 0.518934 0.226550
vt 0.500676 0.211519
vt 0.485702 0.193214
vt 0.474587 0.172339
vt 0.467757 0.149697
vt 0.465476 0.126157
vt 0.467831 0.102625
vt 0.474732 0.080005
vt 0.380289 0.000513
vt 0.500945 0.040907
vt 0.519250 0.025933
vt 0.540125 0.014817
vt 0.562767 0.007988
vt 0.586306 0.005707
vt 0.609838 0.008062
vt 0.632459 0.014962
vt 0.653298 0.026143
vt 0.671556 0.041175
vt 0.780456 0.000513
vt 0.697646 0.080355
vt 0.865612 0.866562
vt 0.763570 0.866562
vt 0.763570 0.856560
vt 0.865612 0.856560
vt 0.865612 0.844506
vt 0.763570 0.844506
vt 0.763570 0.834504
vt 0.865612 0.834504
vt 0.865612 0.855534
vt 0.763570 0.855534
vt 0.763570 0.845532
vt 0.865612 0.845532
vt 0.865612 0.800393
vt 0.763570 0.800393
vt 0.763570 0.790391
vt 0.865612 0.790391
vt 0.670606 0.942416
vt 0.666779 0.933175
vt 0.664827 0.923366
vt 0.664827 0.913364
vt 0.666779 0.903554
vt 0.670606 0.894313
vt 0.676163 0.885997
vt 0.683235 0.878925
vt 0.691552 0.873368
vt 0.700792 0.869540
vt 0.710602 0.867589
vt 0.720604 0.867589
vt 0.730413 0.869540
vt 0.739654 0.873368
vt 0.747970 0.878925
vt 0.755043 0.885997
vt 0.760599 0.894313
vt 0.764427 0.903554
vt 0.766378 0.913364
vt 0.766378 0.923366
vt 0.764427 0.933175
vt 0.760599 0.942416
vt 0.755042 0.950732
vt 0.747970 0.957804
vt 0.739654 0.963361
vt 0.730413 0.967189
vt 0.720603 0.969140
vt 0.710602 0.969140
vt 0.700792 0.967188
vt 0.691552 0.963361
vt 0.683235 0.957804
vt 0.676163 0.950732
vt 0.000000 0.000000
vt 0.000000 0.000000
vt 0.000000 0.000000
vt 0.000000 0.000000
vt 0.000000 0.000000
vt 0.000000 0.000000
vt 0.000000 0.000000
vt 0.000000 0.000000
vt 0.000000 0.000000
vt 0.000000 0.000000
vt 0.000000 0.000000
vt 0.000000 0.000000
vt 0.000000 0.000000
vt 0.000000 0.000000
vt 0.000000 0.000000
vt 0.000000 0.000000
vt 0.000000 0.000000
vt 0.000000 0.000000
vt 0.000000 0.000000
vt 0.000000 0.000000
vt 0.000000 0.000000
vt 0.000000 0.000000
vt 0.000000 0.000000
vt 0.000000 0.000000
vt 0.000000 0.000000
vt 0.000000 0.000000
vt 0.000000 0.000000
vt 0.000000 0.000000
vt 0.000000 0.000000
vt 0.000000 0.000000
vt 0.000000 0.000000
vt 0.000000 0.000000
vt 0.000000 0.000000
vt 0.000000 0.000000
vt 0.000000 0.000000
vt 0.000000 0.000000
vt 0.000000 0.000000
vt 0.000000 0.000000
vt 0.000000 0.000000
vt 0.000000 0.000000
vt 0.000000 0.000000
vt 0.000000 0.000000
vt 0.000000 0.000000
vt 0.000000 0.000000
vt 0.000000 0.000000
vt 0.000000 0.000000
vt 0.000000 0.000000
vt 0.000000 0.000000
vt 0.000000 0.000000
vt 0.000000 0.000000
vt 0.000000 0.000000
vt 0.000000 0.000000
vt 0.000000 0.000000
vt 0.000000 0.000000
vt 0.000000 0.000000
vt 0.000000 0.000000
vt 0.000000 0.000000
vt 0.000000 0.000000
vt 0.000000 0.000000
vt 0.000000 0.000000
vt 0.000000 0.000000
vt 0.000000 0.000000
vt 0.000000 0.000000
vt 0.000000 0.000000
vt 0.000000 0.000000
vt 0.000000 0.000000
vt 0.000000 0.000000
vt 0.000000 0.000000
vt 0.000000 0.000000
vt 0.000000 0.000000
vt 0.000000 0.000000
vt 0.000000 0.000000
vt 0.000000 0.000000
vt 0.000000 0.000000
vt 0.000000 0.000000
vt 0.000000 0.000000
vt 0.000000 0.000000
vt 0.000000 0.000000
vt 0.000000 0.000000
vt 0.000000 0.000000
vt 0.000000 0.000000
vt 0.000000 0.000000
vt 0.000000 0.000000
vt 0.000000 0.000000
vt 0.000000 0.000000
vt 0.000000 0.000000
vt 0.000000 0.000000
vt 0.000000 0.000000
vt 0.000000 0.000000
vn 0.0911 0.3681 -0.9253
vn 0.2699 0.3681 -0.8897
vn 0.4383 0.3681 -0.8200
vn 0.5898 0.3681 -0.7187
vn 0.7187 0.3681 -0.5898
vn 0.8200 0.3681 -0.4383
vn 0.8897 0.3681 -0.2699
vn 0.9253 0.3681 -0.0911
vn 0.9253 0.3681 0.0911
vn 0.8897 0.3681 0.2699
vn 0.8200 0.3681 0.4383
vn 0.7187 0.3681 0.5898
vn 0.5898 0.3681 0.7187
vn 0.4383 0.3681 0.8200
vn 0.2699 0.3681 0.8897
vn 0.0911 0.3681 0.9253
vn -0.0911 0.3681 0.9253
vn -0.2699 0.3681 0.8897
vn -0.4383 0.3681 0.8200
vn -0.5899 0.3681 0.7187
vn -0.7187 0.3681 0.5898
vn -0.8200 0.3681 0.4383
vn -0.8897 0.3681 0.2699
vn -0.9253 0.3681 0.0911
vn -0.9253 0.3681 -0.0911
vn -0.8897 0.3681 -0.2699
vn -0.8200 0.3681 -0.4383
vn -0.7187 0.3681 -0.5899
vn -0.5898 0.3681 -0.7187
vn -0.4383 0.3681 -0.8200
vn -0.2699 0.3681 -0.8897
vn -0.0911 0.3681 -0.9253
vn 0.0980 0.0000 -0.9952
vn -0.9107 0.0769 0.4057
vn 0.2903 0.0000 -0.9569
vn -0.9102 -0.1189 0.3967
vn 0.4714 0.0000 -0.8819
vn 0.6344 0.0000 -0.7730
vn 0.7730 0.0000 -0.6344
vn -0.8748 -0.3101 0.3723
vn 0.8819 0.0000 -0.4714
vn 0.9569 0.0000 -0.2903
vn 0.9952 0.0000 -0.0980
vn -0.8057 -0.4895 0.3337
vn 0.5613 0.0000 -0.8276
vn 0.1500 0.0000 0.9887
vn 0.8819 0.0000 0.4714
vn 0.7730 0.0000 0.6344
vn 0.6344 0.0000 0.7730
vn 0.4714 0.0000 0.8819
vn 0.2903 0.0000 0.9569
vn 0.0980 0.0000 0.9952
vn -0.0980 0.0000 0.9952
vn -0.2903 0.0000 0.9569
vn -0.4714 0.0000 0.8819
vn 0.5539 0.0000 0.8326
vn -0.9496 0.0000 -0.3136
vn -0.8819 0.0000 0.4714
vn -0.9569 0.0000 0.2903
vn -0.9952 0.0000 0.0980
vn -0.9952 0.0000 -0.0980
vn -0.9569 0.0000 -0.2903
vn -0.8819 0.0000 -0.4714
vn -0.7730 0.0000 -0.6344
vn -0.6344 0.0000 -0.7730
vn -0.9903 0.0000 -0.1387
vn -0.0167 0.9998 -0.0045
vn 0.6817 0.0000 -0.7316
vn -0.0980 0.0000 -0.9952
vn 0.0039 -1.0000 0.0011
vn -0.8763 0.2698 0.3992
vn -0.8081 0.4523 0.3774
vn -0.7089 0.6174 0.3410
vn -0.5824 0.7588 0.2916
vn 0.4037 -0.0414 0.9140
vn 0.0000 -1.0000 0.0000
vn 0.4336 -0.8710 -0.2309
vn 0.5824 -0.7588 -0.2916
vn 0.7089 -0.6174 -0.3410
vn 0.8081 -0.4523 -0.3774
vn -0.7056 -0.6500 0.2822
vn 0.8762 -0.2698 -0.3992
vn -0.5784 -0.7855 0.2199
vn 0.9107 -0.0769 -0.4057
vn -0.4290 -0.8909 0.1492
vn 0.9102 0.1189 -0.3966
vn -0.2631 -0.9620 0.0727
vn 0.8747 0.3101 -0.3723
vn -0.0871 -0.9962 -0.0066
vn 0.8056 0.4895 -0.3337
vn 0.0922 -0.9920 -0.0856
vn 0.7056 0.6500 -0.2822
vn 0.2681 -0.9498 -0.1614
vn -0.4336 0.8710 0.2309
vn -0.2680 0.9498 0.1614
vn -0.0922 0.9920 0.0856
vn 0.0871 0.9962 0.0066
vn 0.2631 0.9620 -0.0727
vn -0.4037 0.0414 -0.9140
vn 0.4290 0.8909 -0.1492
vn 0.5784 0.7855 -0.2199
usemtl None
s off
f 1/1/1 2/2/1 3/3/1
f 3/4/2 2/5/2 4/6/2
f 4/7/3 2/8/3 5/9/3
f 5/10/4 2/11/4 6/12/4
f 6/13/5 2/14/5 7/15/5
f 7/16/6 2/17/6 8/18/6
f 8/19/7 2/20/7 9/21/7
f 9/22/8 2/23/8 10/24/8
f 10/25/9 2/26/9 11/27/9
f 11/28/10 2/29/10 12/30/10
f 12/31/11 2/32/11 13/33/11
f 13/34/12 2/35/12 14/36/12
f 14/37/13 2/38/13 15/39/13
f 15/40/14 2/41/14 16/42/14
f 16/43/15 2/44/15 17/45/15
f 17/46/16 2/47/16 18/48/16
f 18/49/17 2/50/17 19/51/17
f 19/52/18 2/53/18 20/54/18
f 20/55/19 2/56/19 21/57/19
f 21/58/20 2/59/20 22/60/20
f 22/61/21 2/62/21 23/63/21
f 23/64/22 2/65/22 24/66/22
f 24/67/23 2/68/23 25/69/23
f 25/70/24 2/71/24 26/72/24
f 26/73/25 2/74/25 27/75/25
f 27/76/26 2/77/26 28/78/26
f 28/79/27 2/80/27 29/81/27
f 29/82/28 2/83/28 30/84/28
f 30/85/29 2/86/29 31/87/29
f 31/88/30 2/89/30 32/90/30
f 32/91/31 2/92/31 33/93/31
f 33/94/32 2/95/32 1/96/32
usemtl None_shipBody.png
f 34/97/33 35/98/33 37/99/33 36/100/33
f 138/101/34 139/102/34 141/103/34 140/104/34
f 36/105/35 37/106/35 39/107/35 38/108/35
f 136/109/36 137/110/36 139/111/36 138/112/36
f 38/113/37 39/114/37 41/115/37 40/116/37
f 40/117/38 41/118/38 43/119/38 42/120/38
f 42/121/39 43/122/39 45/123/39 44/124/39
f 134/125/40 135/126/40 137/127/40 136/128/40
f 44/129/41 45/130/41 47/131/41 46/132/41
f 46/133/42 47/134/42 49/135/42 48/136/42
f 48/137/43 49/138/43 51/139/43 50/140/43
f 132/141/44 133/142/44 135/143/44 134/144/44
f 50/145/45 51/146/45 53/147/45 52/148/45
f 52/149/46 53/150/46 55/151/46 54/152/46
f 54/153/47 55/154/47 57/155/47 56/156/47
f 56/157/48 57/158/48 59/159/48 58/160/48
f 58/161/49 59/162/49 61/163/49 60/164/49
f 60/165/50 61/166/50 63/167/50 62/168/50
f 62/169/51 63/170/51 65/171/51 64/172/51
f 64/173/52 65/174/52 67/175/52 66/176/52
f 66/177/53 67/178/53 69/179/53 68/180/53
f 68/181/54 69/182/54 71/183/54 70/184/54
f 70/185/55 71/186/55 73/187/55 72/188/55
f 72/189/56 73/190/56 75/191/56 74/192/56
f 74/193/57 75/194/57 77/195/57 76/196/57
f 76/197/58 77/198/58 79/199/58 78/200/58
f 78/201/59 79/202/59 81/203/59 80/204/59
f 80/205/60 81/206/60 83/207/60 82/208/60
f 82/209/61 83/210/61 85/211/61 84/212/61
f 84/213/62 85/214/62 87/215/62 86/216/62
f 86/217/63 87/218/63 89/219/63 88/220/63
f 88/221/64 89/222/64 91/223/64 90/224/64
f 90/225/65 91/226/65 93/227/65 92/228/65
f 92/229/66 93/230/66 95/231/66 94/232/66
f 37/233/67 35/234/67 97/235/67 95/236/67 93/237/67 91/238/67 89/239/67 87/240/67 85/241/67 83/242/67 81/243/67 79/244/67 77/245/67 75/246/67 73/247/67 71/248/67 69/249/67 67/250/67 65/251/67 63/252/67 61/253/67 59/254/67 57/255/67 55/256/67 53/257/67 51/258/67 49/259/67 47/260/67 45/261/67 43/262/67 41/263/67 39/264/67
f 94/265/68 95/266/68 97/267/68 96/268/68
f 96/269/69 97/270/69 35/271/69 34/272/69
f 34/273/70 36/274/70 38/275/70 40/276/70 42/277/70 44/278/70 46/279/70 48/280/70 50/281/70 52/282/70 54/283/70 56/284/70 58/285/70 60/286/70 62/287/70 64/288/70 66/289/70 68/290/70 70/291/70 72/292/70 74/293/70 76/294/70 78/295/70 80/296/70 82/297/70 84/298/70 86/299/70 88/300/70 90/301/70 92/302/70 94/303/70 96/304/70
f 140/305/71 141/306/71 143/307/71 142/308/71
f 142/309/72 143/310/72 145/311/72 144/312/72
f 144/313/73 145/314/73 147/315/73 146/316/73
f 146/317/74 147/318/74 149/319/74 148/320/74
f 141/321/75 139/322/75 137/323/75 135/324/75 133/325/75 131/326/75 129/327/75 127/328/75 125/329/75 123/330/75 121/331/75 119/332/75 117/333/75 115/334/75 113/335/75 111/336/75 109/337/75 107/338/75 105/339/75 103/340/75 101/341/75 99/342/75 161/343/75 159/344/75 157/345/75 155/346/75 153/347/75 151/348/75 149/349/75 147/350/75 145/351/75 143/352/75
usemtl None_NONE
f 1/353/76 3/354/76 4/355/76 5/356/76 6/357/76 7/358/76 8/359/76 9/360/76 10/361/76 11/362/76 12/363/76 13/364/76 14/365/76 15/366/76 16/367/76 17/368/76 18/369/76 19/370/76 20/371/76 21/372/76 22/373/76 23/374/76 24/375/76 25/376/76 26/377/76 27/378/76 28/379/76 29/380/76 30/381/76 31/382/76 32/383/76 33/384/76
f 116/385/77 117/386/77 119/387/77 118/388/77
f 114/389/78 115/390/78 117/386/78 116/385/78
f 112/391/79 113/392/79 115/390/79 114/389/79
f 110/393/80 111/394/80 113/392/80 112/391/80
f 130/395/81 131/396/81 133/397/81 132/398/81
f 108/399/82 109/400/82 111/394/82 110/393/82
f 128/401/83 129/402/83 131/396/83 130/395/83
f 106/403/84 107/404/84 109/400/84 108/399/84
f 126/405/85 127/406/85 129/402/85 128/401/85
f 104/407/86 105/408/86 107/404/86 106/403/86
f 124/409/87 125/410/87 127/406/87 126/405/87
f 102/411/88 103/412/88 105/408/88 104/407/88
f 122/413/89 123/414/89 125/410/89 124/409/89
f 100/415/90 101/416/90 103/412/90 102/411/90
f 120/417/91 121/418/91 123/414/91 122/413/91
f 98/419/92 99/420/92 101/416/92 100/415/92
f 118/388/93 119/387/93 121/418/93 120/417/93
f 148/421/94 149/422/94 151/423/94 150/424/94
f 150/424/95 151/423/95 153/425/95 152/426/95
f 152/426/96 153/425/96 155/427/96 154/428/96
f 154/428/97 155/427/97 157/429/97 156/430/97
f 156/430/98 157/429/98 159/431/98 158/432/98
f 118/388/99 120/417/99 122/413/99 124/409/99 126/405/99 128/401/99 130/395/99 132/398/99 134/433/99 136/434/99 138/435/99 140/436/99 142/437/99 144/438/99 146/439/99 148/421/99 150/424/99 152/426/99 154/428/99 156/430/99 158/432/99 160/440/99 98/419/99 100/415/99 102/411/99 104/407/99 106/403/99 108/399/99 110/393/99 112/391/99 114/389/99 116/385/99
f 158/432/100 159/431/100 161/441/100 160/440/100
f 160/440/101 161/441/101 99/420/101 98/419/101
