# Blender v2.79 (sub 0) OBJ File: 'testUFO.blend'
# www.blender.org
mtllib testUFO.mtl
o Cube
v 1.000000 3.556173 -1.000986
v 1.000000 3.556173 0.999013
v -1.000000 3.556173 0.999013
v -0.999999 3.556173 -1.000987
v 1.000000 5.556173 -1.000986
v 0.999999 5.556173 0.999014
v -1.000000 5.556173 0.999013
v -1.000000 5.556173 -1.000987
v 0.008973 3.540293 -0.086401
v 0.008973 3.727095 0.007000
v 0.027195 3.540292 -0.084606
v 0.044716 3.540293 -0.079291
v 0.060864 3.540293 -0.070660
v 0.075018 3.540292 -0.059044
v 0.086633 3.540293 -0.044890
v 0.095265 3.540292 -0.028743
v 0.100580 3.540292 -0.011221
v 0.102374 3.540293 0.007000
v 0.100580 3.540293 0.025222
v 0.095265 3.540293 0.042743
v 0.086633 3.540293 0.058891
v 0.075018 3.540292 0.073045
v 0.060864 3.540293 0.084660
v 0.044716 3.540293 0.093292
v 0.027195 3.540293 0.098607
v 0.008973 3.540292 0.100401
v -0.009248 3.540292 0.098607
v -0.026770 3.540292 0.093292
v -0.042918 3.540293 0.084660
v -0.057071 3.540293 0.073045
v -0.068687 3.540293 0.058891
v -0.077318 3.540293 0.042743
v -0.082633 3.540292 0.025222
v -0.084428 3.540292 0.007000
v -0.082633 3.540293 -0.011221
v -0.077318 3.540293 -0.028743
v -0.068687 3.540292 -0.044891
v -0.057071 3.540293 -0.059044
v -0.042917 3.540293 -0.070660
v -0.026770 3.540293 -0.079291
v -0.009248 3.540292 -0.084606
vt 0.233145 0.537253
vt 0.000492 0.537253
vt 0.000492 0.304600
vt 0.233145 0.304600
vt 0.537252 0.233145
vt 0.304599 0.233146
vt 0.304599 0.000492
vt 0.537252 0.000492
vt 0.537252 0.467768
vt 0.537252 0.700421
vt 0.304599 0.700421
vt 0.304599 0.467768
vt 0.770890 0.000492
vt 0.770890 0.233145
vt 0.538237 0.233145
vt 0.538237 0.000492
vt 0.000492 0.770890
vt 0.000492 0.538237
vt 0.233145 0.538237
vt 0.233145 0.770890
vt 0.537252 0.234130
vt 0.537252 0.466783
vt 0.304599 0.466783
vt 0.304599 0.234130
vt 0.783743 0.234130
vt 0.783743 0.574668
vt 0.753916 0.235439
vt 0.968696 0.575653
vt 0.953769 0.915863
vt 0.938841 0.575653
vt 0.660497 0.234130
vt 0.660497 0.574668
vt 0.630671 0.235439
vt 0.691309 0.575653
vt 0.691309 0.916191
vt 0.661482 0.576962
vt 0.937828 0.234130
vt 0.922900 0.574341
vt 0.907972 0.234130
vt 0.722120 0.575653
vt 0.722120 0.916192
vt 0.692293 0.576962
vt 0.999508 0.234130
vt 0.984580 0.574342
vt 0.969653 0.234130
vt 0.294825 0.646122
vt 0.279898 0.986333
vt 0.264970 0.646122
vt 0.906988 0.234130
vt 0.906988 0.574668
vt 0.877161 0.235439
vt 0.598875 0.575653
vt 0.598875 0.916191
vt 0.569048 0.576962
vt 0.937856 0.575653
vt 0.922929 0.915863
vt 0.908001 0.575653
vt 0.629686 0.575653
vt 0.629686 0.916191
vt 0.599860 0.576962
vt 0.968668 0.234130
vt 0.953740 0.574341
vt 0.938813 0.234130
vt 0.814554 0.234130
vt 0.814554 0.574668
vt 0.784727 0.235439
vt 0.629686 0.234130
vt 0.629686 0.574668
vt 0.599860 0.235439
vt 0.783771 0.575653
vt 0.768844 0.915864
vt 0.753916 0.575653
vt 0.263957 0.304600
vt 0.263957 0.645137
vt 0.234130 0.305908
vt 0.907016 0.575653
vt 0.892089 0.915863
vt 0.877161 0.575653
vt 0.568063 0.575653
vt 0.568063 0.916191
vt 0.538237 0.576962
vt 0.263985 0.646122
vt 0.249058 0.986333
vt 0.234130 0.646122
vt 0.598875 0.234130
vt 0.598875 0.574668
vt 0.569048 0.235439
vt 0.752931 0.234130
vt 0.752931 0.574668
vt 0.723105 0.235439
vt 0.845365 0.234130
vt 0.845365 0.574668
vt 0.815539 0.235439
vt 0.845451 0.575653
vt 0.830524 0.915864
vt 0.815596 0.575653
vt 0.876176 0.234130
vt 0.876176 0.574668
vt 0.846350 0.235439
vt 0.814611 0.575653
vt 0.799684 0.915863
vt 0.784756 0.575653
vt 0.568063 0.234130
vt 0.568063 0.574668
vt 0.538237 0.235439
vt 0.660497 0.575653
vt 0.660497 0.916191
vt 0.630671 0.576962
vt 0.294768 0.304600
vt 0.294768 0.645137
vt 0.264942 0.305908
vt 0.722120 0.234130
vt 0.722120 0.574668
vt 0.692293 0.235439
vt 0.691309 0.234130
vt 0.691309 0.574668
vt 0.661482 0.235439
vt 0.752931 0.575653
vt 0.752931 0.916191
vt 0.723105 0.576962
vt 0.080263 0.017742
vt 0.107845 0.006317
vt 0.137127 0.000492
vt 0.166982 0.000493
vt 0.196263 0.006317
vt 0.223845 0.017742
vt 0.248668 0.034329
vt 0.269778 0.055439
vt 0.286365 0.080263
vt 0.297790 0.107845
vt 0.303614 0.137126
vt 0.303614 0.166981
vt 0.297790 0.196262
vt 0.286365 0.223845
vt 0.269779 0.248668
vt 0.248668 0.269778
vt 0.223845 0.286365
vt 0.196263 0.297790
vt 0.166981 0.303615
vt 0.137126 0.303615
vt 0.107845 0.297790
vt 0.080263 0.286365
vt 0.055439 0.269779
vt 0.034328 0.248668
vt 0.017742 0.223844
vt 0.006317 0.196262
vt 0.000492 0.166981
vt 0.000492 0.137126
vt 0.006317 0.107845
vt 0.017742 0.080262
vt 0.034329 0.055439
vt 0.055439 0.034328
vn 0.0000 -1.0000 -0.0000
vn 0.0000 1.0000 0.0000
vn 1.0000 0.0000 0.0000
vn -0.0000 -0.0000 1.0000
vn -1.0000 -0.0000 -0.0000
vn 0.0000 0.0000 -1.0000
vn 0.0878 0.4455 -0.8910
vn 0.2599 0.4455 -0.8567
vn 0.4220 0.4455 -0.7896
vn 0.5680 0.4455 -0.6921
vn 0.6921 0.4455 -0.5680
vn 0.7896 0.4455 -0.4220
vn 0.8567 0.4455 -0.2599
vn 0.8910 0.4455 -0.0878
vn 0.8910 0.4455 0.0877
vn 0.8567 0.4455 0.2599
vn 0.7896 0.4455 0.4220
vn 0.6921 0.4455 0.5680
vn 0.5680 0.4455 0.6921
vn 0.4220 0.4455 0.7896
vn 0.2599 0.4455 0.8567
vn 0.0877 0.4455 0.8910
vn -0.0878 0.4455 0.8910
vn -0.2599 0.4455 0.8567
vn -0.4220 0.4455 0.7896
vn -0.5680 0.4455 0.6921
vn -0.6921 0.4455 0.5680
vn -0.7896 0.4455 0.4220
vn -0.8567 0.4455 0.2599
vn -0.8910 0.4455 0.0877
vn -0.8910 0.4455 -0.0877
vn -0.8567 0.4455 -0.2599
vn -0.7896 0.4455 -0.4220
vn -0.6921 0.4455 -0.5680
vn -0.5680 0.4455 -0.6921
vn -0.4220 0.4455 -0.7896
vn -0.2599 0.4455 -0.8567
vn -0.0878 0.4455 -0.8910
usemtl Material
s off
f 1/1/1 2/2/1 3/3/1 4/4/1
f 5/5/2 8/6/2 7/7/2 6/8/2
f 1/9/3 5/10/3 6/11/3 2/12/3
f 2/13/4 6/14/4 7/15/4 3/16/4
f 3/17/5 7/18/5 8/19/5 4/20/5
f 5/21/6 1/22/6 4/23/6 8/24/6
f 9/25/7 10/26/7 11/27/7
f 11/28/8 10/29/8 12/30/8
f 12/31/9 10/32/9 13/33/9
f 13/34/10 10/35/10 14/36/10
f 14/37/11 10/38/11 15/39/11
f 15/40/12 10/41/12 16/42/12
f 16/43/13 10/44/13 17/45/13
f 17/46/14 10/47/14 18/48/14
f 18/49/15 10/50/15 19/51/15
f 19/52/16 10/53/16 20/54/16
f 20/55/17 10/56/17 21/57/17
f 21/58/18 10/59/18 22/60/18
f 22/61/19 10/62/19 23/63/19
f 23/64/20 10/65/20 24/66/20
f 24/67/21 10/68/21 25/69/21
f 25/70/22 10/71/22 26/72/22
f 26/73/23 10/74/23 27/75/23
f 27/76/24 10/77/24 28/78/24
f 28/79/25 10/80/25 29/81/25
f 29/82/26 10/83/26 30/84/26
f 30/85/27 10/86/27 31/87/27
f 31/88/28 10/89/28 32/90/28
f 32/91/29 10/92/29 33/93/29
f 33/94/30 10/95/30 34/96/30
f 34/97/31 10/98/31 35/99/31
f 35/100/32 10/101/32 36/102/32
f 36/103/33 10/104/33 37/105/33
f 37/106/34 10/107/34 38/108/34
f 38/109/35 10/110/35 39/111/35
f 39/112/36 10/113/36 40/114/36
f 40/115/37 10/116/37 41/117/37
f 41/118/38 10/119/38 9/120/38
f 9/121/1 11/122/1 12/123/1 13/124/1 14/125/1 15/126/1 16/127/1 17/128/1 18/129/1 19/130/1 20/131/1 21/132/1 22/133/1 23/134/1 24/135/1 25/136/1 26/137/1 27/138/1 28/139/1 29/140/1 30/141/1 31/142/1 32/143/1 33/144/1 34/145/1 35/146/1 36/147/1 37/148/1 38/149/1 39/150/1 40/151/1 41/152/1
